<?xml version="1.0" encoding="UTF-8"?>
<svg xmlns="http://www.w3.org/2000/svg" xmlns:xlink="http://www.w3.org/1999/xlink" width="54pt" height="71pt" viewBox="0 0 54 71" version="1.1">
<g id="surface1">
<path style=" stroke:none;fill-rule:nonzero;fill:rgb(94.509804%,94.509804%,94.509804%);fill-opacity:1;" d="M 42.71875 13.351562 C 46.054688 17.78125 46.011719 24.4375 46.714844 31.800781 C 47.417969 39.167969 48.898438 47.234375 45.574219 54.039062 C 42.238281 60.828125 34.101562 66.363281 27.992188 64.378906 C 21.882812 62.394531 17.746094 52.863281 12.636719 46.058594 C 7.527344 39.25 1.402344 35.167969 0.234375 29.914062 C -0.933594 24.660156 2.8125 18.242188 7.921875 13.8125 C 12.964844 9.441406 19.398438 6.972656 26.09375 6.835938 C 32.683594 6.726562 39.382812 8.921875 42.71875 13.351562 Z M 42.71875 13.351562 "/>
<path style=" stroke:none;fill-rule:nonzero;fill:rgb(89.411765%,61.568627%,45.882353%);fill-opacity:1;" d="M 18.984375 65.070312 L 21.492188 65.070312 L 21.492188 68.035156 L 18.984375 68.035156 Z M 18.984375 65.070312 "/>
<path style=" stroke:none;fill-rule:nonzero;fill:rgb(89.411765%,61.568627%,45.882353%);fill-opacity:1;" d="M 42.050781 64.902344 L 42.214844 67.257812 L 45.332031 66.550781 L 44.160156 63.886719 Z M 42.050781 64.902344 "/>
<path style=" stroke:none;fill-rule:nonzero;fill:rgb(37.254902%,77.254902%,81.960784%);fill-opacity:1;" d="M 30.671875 30.726562 C 30.988281 31.296875 44.5625 63.917969 44.5625 63.917969 L 41.855469 65.277344 L 25.859375 42.6875 C 25.859375 42.6875 26.433594 30.0625 30.671875 30.726562 Z M 30.671875 30.726562 "/>
<path style=" stroke:none;fill-rule:nonzero;fill:rgb(41.960784%,83.529412%,88.235294%);fill-opacity:1;" d="M 18.359375 31.039062 L 18.359375 65.242188 C 18.976562 65.625 21.207031 65.78125 21.75 65.242188 C 21.90625 64.707031 29.492188 31.039062 29.492188 31.039062 Z M 18.359375 31.039062 "/>
<path style=" stroke:none;fill-rule:nonzero;fill:rgb(89.411765%,61.568627%,45.882353%);fill-opacity:1;" d="M 34.210938 13.085938 C 34.816406 13.105469 37.347656 13.199219 38.859375 13.085938 C 40.371094 12.976562 48.550781 11.433594 49.53125 11.078125 C 50.089844 11.554688 50.648438 12.65625 49.65625 13.066406 C 48.664062 13.472656 38.6875 16.976562 37.640625 17.191406 C 36.59375 17.40625 34.632812 17.597656 33.742188 17.53125 C 32.855469 17.464844 34.210938 13.085938 34.210938 13.085938 Z M 34.210938 13.085938 "/>
<path style=" stroke:none;fill-rule:nonzero;fill:rgb(100%,78.039216%,55.686275%);fill-opacity:1;" d="M 26.996094 14.851562 C 27.292969 12.738281 33.019531 11.890625 33.910156 12.625 C 34.796875 13.359375 34.789062 17.835938 33.925781 18.410156 C 33.0625 18.988281 26.628906 17.503906 26.996094 14.851562 Z M 26.996094 14.851562 "/>
<path style=" stroke:none;fill-rule:nonzero;fill:rgb(100%,85.098039%,55.686275%);fill-opacity:1;" d="M 24.925781 11.394531 C 30.5625 11.394531 32.300781 24.65625 30.925781 30.824219 C 30.601562 32.265625 18.945312 31.71875 18.363281 31.039062 C 17.785156 30.363281 17.042969 11.394531 24.925781 11.394531 Z M 24.925781 11.394531 "/>
<path style=" stroke:none;fill-rule:nonzero;fill:rgb(89.411765%,61.568627%,45.882353%);fill-opacity:1;" d="M 15.789062 16.785156 C 14.746094 17.316406 11.019531 21.367188 10.921875 22.054688 C 10.824219 22.742188 15.914062 29.132812 16.738281 29.640625 C 17.6875 29.664062 18.019531 28.890625 18.136719 28.226562 C 17.6875 27.554688 15.960938 23.515625 15.523438 22.921875 C 15.902344 22.621094 18.417969 20.621094 18.71875 20.148438 C 19.019531 19.679688 15.789062 16.785156 15.789062 16.785156 Z M 15.789062 16.785156 "/>
<path style=" stroke:none;fill-rule:nonzero;fill:rgb(82.745098%,55.294118%,41.568627%);fill-opacity:1;" d="M 23.261719 6.933594 C 23.394531 7.269531 23.945312 11.972656 23.703125 12.792969 C 23.984375 13.050781 26.0625 13.300781 26.488281 12.792969 C 26.347656 12.253906 26.269531 9.765625 26.375 9.292969 C 26.480469 8.816406 23.261719 6.933594 23.261719 6.933594 Z M 23.261719 6.933594 "/>
<path style=" stroke:none;fill-rule:nonzero;fill:rgb(41.960784%,83.529412%,88.235294%);fill-opacity:1;" d="M 53.984375 5.058594 C 53.984375 2.515625 52.699219 0.453125 51.117188 0.453125 C 49.53125 0.453125 48.25 2.515625 48.25 5.058594 C 48.25 7.601562 49.53125 9.664062 51.117188 9.664062 C 52.699219 9.664062 53.984375 7.601562 53.984375 5.058594 Z M 53.984375 5.058594 "/>
<path style=" stroke:none;fill-rule:nonzero;fill:rgb(100%,100%,100%);fill-opacity:1;" d="M 53.355469 5.113281 C 53.355469 3.023438 52.351562 1.328125 51.117188 1.328125 C 49.878906 1.328125 48.875 3.023438 48.875 5.113281 C 48.875 7.203125 49.878906 8.894531 51.117188 8.894531 C 52.351562 8.894531 53.355469 7.203125 53.355469 5.113281 Z M 53.355469 5.113281 "/>
<path style=" stroke:none;fill-rule:nonzero;fill:rgb(89.411765%,61.568627%,45.882353%);fill-opacity:1;" d="M 53.046875 11.613281 C 52.914062 10.769531 51.917969 10.226562 50.824219 10.394531 C 49.730469 10.5625 48.949219 11.386719 49.082031 12.226562 C 49.214844 13.070312 50.210938 13.617188 51.304688 13.449219 C 52.398438 13.277344 53.179688 12.457031 53.046875 11.613281 Z M 53.046875 11.613281 "/>
<path style=" stroke:none;fill-rule:nonzero;fill:rgb(100%,89.411765%,67.843137%);fill-opacity:1;" d="M 22.109375 14.085938 C 23.398438 15.753906 20.207031 20.464844 19.105469 20.601562 C 18.003906 20.734375 14.871094 17.652344 15.035156 16.632812 C 15.199219 15.617188 20.488281 11.996094 22.109375 14.085938 Z M 22.109375 14.085938 "/>
<path style=" stroke:none;fill-rule:nonzero;fill:rgb(89.411765%,61.568627%,45.882353%);fill-opacity:1;" d="M 26.125 2.128906 C 24.285156 2.066406 22.722656 3.921875 22.636719 6.273438 C 22.550781 8.628906 23.976562 10.589844 25.820312 10.65625 C 27.664062 10.722656 29.226562 8.867188 29.308594 6.511719 C 29.394531 4.15625 27.96875 2.195312 26.125 2.128906 Z M 26.125 2.128906 "/>
<path style=" stroke:none;fill-rule:nonzero;fill:rgb(99.215686%,51.372549%,41.176471%);fill-opacity:1;" d="M 22.316406 6.804688 C 22.160156 6.617188 21.871094 4.777344 21.871094 4.40625 C 21.871094 2.964844 23.179688 2.453125 23.925781 1.625 C 24.417969 1.082031 24.960938 0 25.707031 0 C 26.742188 0 27.265625 0.539062 27.832031 0.542969 C 28.652344 0.546875 29.011719 0.152344 30.390625 0.0859375 C 31.238281 0.046875 31.59375 1.214844 31.613281 1.683594 C 31.648438 2.816406 30.941406 5.078125 29.214844 5.191406 C 29.097656 4.816406 28.875 4.214844 28.875 4.214844 C 28.511719 4.304688 25.324219 4.96875 24.183594 4.976562 C 24.203125 5.296875 24.242188 6.574219 23.464844 6.742188 C 22.6875 6.910156 22.316406 6.804688 22.316406 6.804688 Z M 22.316406 6.804688 "/>
<path style=" stroke:none;fill-rule:nonzero;fill:rgb(89.411765%,61.568627%,45.882353%);fill-opacity:1;" d="M 23.839844 7.046875 C 23.839844 7.566406 23.414062 7.988281 22.890625 7.988281 C 22.367188 7.988281 21.941406 7.566406 21.941406 7.046875 C 21.941406 6.527344 22.367188 6.105469 22.890625 6.105469 C 23.414062 6.105469 23.839844 6.527344 23.839844 7.046875 Z M 23.839844 7.046875 "/>
<path style=" stroke:none;fill-rule:nonzero;fill:rgb(89.411765%,61.568627%,45.882353%);fill-opacity:1;" d="M 16.691406 29.277344 C 16.71875 29.546875 16.660156 30.550781 17.101562 31.042969 C 17.636719 31.644531 18.625 32.320312 19.488281 31.519531 C 20.1875 30.863281 20.082031 30.238281 19.878906 29.816406 C 19.585938 29.207031 18.96875 28.40625 17.878906 28.144531 C 16.789062 27.882812 16.691406 29.277344 16.691406 29.277344 Z M 16.691406 29.277344 "/>
<path style=" stroke:none;fill-rule:nonzero;fill:rgb(0%,0%,0%);fill-opacity:1;" d="M 23.480469 71 L 17.894531 71 L 18.984375 68.035156 L 21.492188 68.035156 Z M 23.480469 71 "/>
<path style=" stroke:none;fill-rule:nonzero;fill:rgb(0%,0%,0%);fill-opacity:1;" d="M 42.214844 67.257812 L 42.214844 69.746094 L 50.722656 69.746094 L 50.722656 68.796875 L 45.050781 66.40625 Z M 42.214844 67.257812 "/>
<path style=" stroke:none;fill-rule:nonzero;fill:rgb(41.960784%,83.529412%,88.235294%);fill-opacity:1;" d="M 50.511719 9.414062 L 51.480469 9.414062 L 51.480469 14.339844 L 50.511719 14.339844 Z M 50.511719 9.414062 "/>
<path style=" stroke:none;fill-rule:nonzero;fill:rgb(89.411765%,61.568627%,45.882353%);fill-opacity:1;" d="M 49.546875 6.511719 C 49.570312 7.167969 49.714844 7.816406 49.976562 8.421875 C 50.308594 8.753906 50.691406 8.945312 51.105469 8.945312 C 52.34375 8.945312 53.347656 7.230469 53.347656 5.109375 C 53.347656 3.914062 53.027344 2.851562 52.527344 2.144531 C 50.785156 2.34375 49.464844 4.242188 49.546875 6.511719 Z M 49.546875 6.511719 "/>
<path style=" stroke:none;fill-rule:nonzero;fill:rgb(99.215686%,51.372549%,41.176471%);fill-opacity:1;" d="M 51.105469 1.269531 C 49.894531 1.269531 48.90625 2.917969 48.867188 4.972656 C 49.109375 5.101562 49.371094 5.175781 49.640625 5.191406 C 49.757812 4.816406 49.984375 4.214844 49.984375 4.214844 C 50.246094 4.28125 51.96875 4.640625 53.339844 4.839844 C 53.257812 2.847656 52.289062 1.269531 51.105469 1.269531 Z M 51.105469 1.269531 "/>
</g>
</svg>
