<?xml version="1.0" standalone="no"?>
<!DOCTYPE svg PUBLIC "-//W3C//DTD SVG 20010904//EN"
 "http://www.w3.org/TR/2001/REC-SVG-20010904/DTD/svg10.dtd">
<svg version="1.0" xmlns="http://www.w3.org/2000/svg"
 width="500.000000pt" height="500.000000pt" viewBox="0 0 500.000000 500.000000"
 preserveAspectRatio="xMidYMid meet">

<g transform="translate(0.000000,500.000000) scale(0.100000,-0.100000)"
fill="#000000" stroke="none">
<path d="M1560 2690 l0 -930 930 0 930 0 0 930 0 930 -930 0 -930 0 0 -930z
m710 625 c0 -25 -1 -25 -90 -25 l-90 0 0 -40 0 -39 78 -3 c75 -3 77 -4 77 -28
0 -24 -2 -25 -77 -28 l-78 -3 0 -39 0 -40 90 0 c89 0 90 0 90 -25 l0 -25 -115
0 -115 0 0 160 0 160 115 0 115 0 0 -25z m190 -110 l0 -135 70 0 c68 0 70 -1
70 -25 0 -25 0 -25 -95 -25 l-95 0 0 160 0 160 25 0 25 0 0 -135z m522 -25
c37 -85 68 -156 68 -157 0 -2 -13 -3 -28 -3 -22 0 -32 7 -45 35 l-17 35 -78 0
-78 0 -17 -35 c-13 -26 -23 -35 -42 -35 -14 0 -25 3 -25 6 0 4 30 76 67 161
67 151 68 154 97 151 28 -3 34 -12 98 -158z m-882 -425 l0 -135 70 0 c68 0 70
-1 70 -25 l0 -25 -100 0 -100 0 0 160 0 160 30 0 30 0 0 -135z m929 -24 c-2
-53 -5 -61 -35 -85 -34 -27 -34 -27 -34 -4 0 21 -2 20 -35 -12 -24 -24 -33
-39 -29 -54 4 -16 -3 -26 -26 -39 -16 -10 -30 -14 -30 -8 0 5 -14 24 -31 41
-18 17 -40 47 -49 66 -17 33 -17 34 2 34 10 0 32 -7 47 -14 27 -14 29 -14 67
25 l38 39 -47 0 -47 0 0 35 0 35 105 0 106 0 -2 -59z m-354 -111 l22 -21 -34
-34 c-31 -31 -35 -40 -31 -75 l4 -40 -38 0 c-38 0 -38 0 -38 40 0 49 20 100
51 129 28 26 37 26 64 1z m55 -109 c0 -101 -11 -123 -55 -103 -30 14 -32 33
-4 50 28 18 50 74 43 111 -4 20 -2 31 5 31 7 0 11 -30 11 -89z m-151 -101 c19
-37 19 -40 3 -40 -26 0 -42 20 -42 52 0 39 14 35 39 -12z m-309 -35 c0 -25 -1
-25 -90 -25 l-90 0 0 -40 0 -39 78 -3 c75 -3 77 -4 77 -28 0 -24 -2 -25 -77
-28 l-78 -3 0 -39 0 -40 90 0 c89 0 90 0 90 -25 l0 -25 -115 0 -115 0 0 160 0
160 115 0 115 0 0 -25z"/>
<path d="M2856 3216 c-14 -32 -26 -62 -26 -67 0 -5 25 -9 55 -9 61 0 60 -8 17
90 l-19 45 -27 -59z"/>
<path d="M2040 1495 c0 -43 1 -45 28 -45 33 0 52 16 52 45 0 29 -19 45 -52 45
-27 0 -28 -2 -28 -45z m64 12 c9 -15 7 -21 -9 -33 -27 -20 -39 -13 -43 25 -3
29 -1 32 19 29 12 -2 27 -11 33 -21z"/>
<path d="M2160 1495 c0 -44 0 -45 33 -44 30 2 30 2 5 6 -16 2 -28 10 -28 18 0
8 12 16 28 18 l27 4 -27 2 c-17 0 -28 7 -28 15 0 8 12 17 28 19 25 4 25 4 -5
6 -33 1 -33 0 -33 -44z"/>
<path d="M2257 1533 c-15 -14 -6 -33 18 -39 31 -8 27 -30 -5 -26 -14 2 -20 0
-16 -7 10 -16 42 -13 57 5 11 14 10 18 -6 30 -10 8 -22 14 -27 14 -4 0 -8 5
-8 11 0 6 9 9 20 6 11 -3 20 -1 20 4 0 10 -43 12 -53 2z"/>
<path d="M2350 1495 c0 -43 1 -45 28 -45 33 0 52 16 52 45 0 29 -19 45 -52 45
-27 0 -28 -2 -28 -45z m64 12 c9 -15 7 -21 -9 -33 -27 -20 -39 -13 -43 25 -3
29 -1 32 19 29 12 -2 27 -11 33 -21z"/>
<path d="M2470 1495 c0 -44 0 -45 33 -44 30 2 30 2 5 6 -16 2 -28 10 -28 18 0
8 12 16 28 18 l27 4 -27 2 c-17 0 -28 7 -28 15 0 8 12 17 28 19 25 4 25 4 -5
6 -33 1 -33 0 -33 -44z"/>
<path d="M2610 1531 c0 -5 9 -7 20 -4 27 7 25 -9 -6 -46 l-26 -31 39 1 c23 1
29 3 16 6 -27 5 -29 16 -8 33 25 21 19 50 -10 50 -14 0 -25 -4 -25 -9z"/>
<path d="M2707 1534 c-4 -4 -7 -22 -7 -40 0 -24 5 -34 20 -39 30 -10 52 13 48
49 -2 25 -8 32 -28 34 -14 2 -29 0 -33 -4z m48 -15 c12 -19 -4 -61 -23 -57
-30 6 -28 68 2 68 8 0 18 -5 21 -11z"/>
<path d="M2800 1531 c0 -5 9 -7 20 -4 13 4 20 0 20 -9 0 -8 -9 -23 -20 -33
-28 -26 -25 -35 13 -34 23 1 26 3 9 6 l-22 4 20 30 c12 16 18 33 15 39 -8 12
-55 13 -55 1z"/>
<path d="M2897 1533 c-11 -11 -8 -58 5 -71 33 -33 81 15 58 59 -10 18 -50 26
-63 12z m48 -38 c0 -33 -21 -41 -38 -14 -14 22 -1 51 20 47 13 -2 18 -13 18
-33z"/>
</g>
</svg>
