<?xml version="1.0" encoding="UTF-8"?>
<svg xmlns="http://www.w3.org/2000/svg" xmlns:xlink="http://www.w3.org/1999/xlink" width="100pt" height="100pt" viewBox="0 0 100 100" version="1.1">
<g id="surface1">
<path style=" stroke:none;fill-rule:nonzero;fill:rgb(95.294118%,95.294118%,95.294118%);fill-opacity:1;" d="M 10.988281 4.300781 L 83.761719 4.300781 L 83.761719 76.03125 L 10.988281 76.03125 Z M 10.988281 4.300781 "/>
<path style=" stroke:none;fill-rule:nonzero;fill:rgb(88.235294%,88.235294%,88.235294%);fill-opacity:1;" d="M 10.988281 4.300781 L 83.761719 4.300781 L 83.761719 9.761719 L 10.988281 9.761719 Z M 10.988281 4.300781 "/>
<path style=" stroke:none;fill-rule:nonzero;fill:rgb(99.215686%,51.372549%,41.176471%);fill-opacity:1;" d="M 15.691406 7.101562 C 15.691406 7.574219 15.304688 7.960938 14.828125 7.960938 C 14.355469 7.960938 13.96875 7.574219 13.96875 7.101562 C 13.96875 6.625 14.355469 6.238281 14.828125 6.238281 C 15.304688 6.238281 15.691406 6.625 15.691406 7.101562 Z M 15.691406 7.101562 "/>
<path style=" stroke:none;fill-rule:nonzero;fill:rgb(99.215686%,51.372549%,41.176471%);fill-opacity:1;" d="M 18.460938 7.101562 C 18.460938 7.574219 18.074219 7.960938 17.601562 7.960938 C 17.125 7.960938 16.738281 7.574219 16.738281 7.101562 C 16.738281 6.625 17.125 6.238281 17.601562 6.238281 C 18.074219 6.238281 18.460938 6.625 18.460938 7.101562 Z M 18.460938 7.101562 "/>
<path style=" stroke:none;fill-rule:nonzero;fill:rgb(99.215686%,51.372549%,41.176471%);fill-opacity:1;" d="M 21.230469 7.101562 C 21.230469 7.574219 20.84375 7.960938 20.371094 7.960938 C 19.894531 7.960938 19.511719 7.574219 19.511719 7.101562 C 19.511719 6.625 19.894531 6.238281 20.371094 6.238281 C 20.84375 6.238281 21.230469 6.625 21.230469 7.101562 Z M 21.230469 7.101562 "/>
<path style=" stroke:none;fill-rule:nonzero;fill:rgb(100%,100%,100%);fill-opacity:1;" d="M 14.550781 13.738281 L 43.640625 13.738281 L 43.640625 29.5 L 14.550781 29.5 Z M 14.550781 13.738281 "/>
<path style=" stroke:none;fill-rule:nonzero;fill:rgb(100%,100%,100%);fill-opacity:1;" d="M 14.550781 33.238281 L 43.640625 33.238281 L 43.640625 49 L 14.550781 49 Z M 14.550781 33.238281 "/>
<path style=" stroke:none;fill-rule:nonzero;fill:rgb(100%,100%,100%);fill-opacity:1;" d="M 50.71875 33.238281 L 79.808594 33.238281 L 79.808594 67.230469 L 50.71875 67.230469 Z M 50.71875 33.238281 "/>
<path style=" stroke:none;fill-rule:nonzero;fill:rgb(88.235294%,88.235294%,88.235294%);fill-opacity:1;" d="M 48.691406 14.878906 L 88.628906 14.878906 L 88.628906 16.398438 L 48.691406 16.398438 Z M 48.691406 14.878906 "/>
<path style=" stroke:none;fill-rule:nonzero;fill:rgb(88.235294%,88.235294%,88.235294%);fill-opacity:1;" d="M 48.691406 19.171875 L 88.628906 19.171875 L 88.628906 20.691406 L 48.691406 20.691406 Z M 48.691406 19.171875 "/>
<path style=" stroke:none;fill-rule:nonzero;fill:rgb(88.235294%,88.235294%,88.235294%);fill-opacity:1;" d="M 48.691406 23.460938 L 88.628906 23.460938 L 88.628906 24.980469 L 48.691406 24.980469 Z M 48.691406 23.460938 "/>
<path style=" stroke:none;fill-rule:nonzero;fill:rgb(88.235294%,88.235294%,88.235294%);fill-opacity:1;" d="M 48.691406 27.75 L 88.628906 27.75 L 88.628906 29.269531 L 48.691406 29.269531 Z M 48.691406 27.75 "/>
<path style=" stroke:none;fill-rule:nonzero;fill:rgb(87.058824%,55.686275%,40.784314%);fill-opacity:1;" d="M 68.988281 75.621094 L 70.519531 75.621094 L 70.519531 77.941406 L 68.988281 77.941406 Z M 68.988281 75.621094 "/>
<path style=" stroke:none;fill-rule:nonzero;fill:rgb(87.058824%,55.686275%,40.784314%);fill-opacity:1;" d="M 87.019531 85.421875 L 88.550781 85.421875 L 88.550781 87.738281 L 87.019531 87.738281 Z M 87.019531 85.421875 "/>
<path style=" stroke:none;fill-rule:nonzero;fill:rgb(43.529412%,78.823529%,80.784314%);fill-opacity:1;" d="M 80.21875 54.148438 C 78.371094 54.148438 70.109375 62.359375 69.390625 63.738281 C 68.671875 65.121094 68.878906 75.929688 68.878906 75.929688 L 70.660156 76.269531 L 73.550781 66.199219 C 74.808594 66.050781 80.109375 64.910156 82.851562 62.699219 C 85.589844 60.480469 82.589844 55.53125 82.589844 55.53125 Z M 80.21875 54.148438 "/>
<path style=" stroke:none;fill-rule:nonzero;fill:rgb(87.058824%,55.686275%,40.784314%);fill-opacity:1;" d="M 77.128906 43 C 76.21875 43.808594 74.398438 45.839844 74.25 46.101562 C 73.789062 45.878906 69 43.359375 68.640625 43.199219 C 68.28125 43.039062 67.519531 41.769531 67.261719 41.769531 C 67.109375 41.769531 66.96875 42.058594 66.96875 42.261719 C 66.96875 42.601562 67.128906 42.859375 67.230469 42.96875 C 66.890625 42.921875 63.890625 42.691406 63.890625 42.890625 C 63.890625 43.410156 67.25 44.101562 67.511719 44.238281 C 67.769531 44.378906 73.238281 49.441406 75.140625 49.441406 C 75.878906 49.441406 79.148438 47.21875 79.148438 46.980469 C 79.460938 46.769531 79.941406 46.460938 79.941406 46.460938 L 79.941406 44.699219 L 78.800781 43.871094 C 78.800781 43.859375 77.308594 42.839844 77.128906 43 Z M 77.128906 43 "/>
<path style=" stroke:none;fill-rule:nonzero;fill:rgb(99.607843%,74.901961%,57.254902%);fill-opacity:1;" d="M 77.011719 42.421875 C 77.210938 40.800781 80.941406 37.121094 82.648438 38.761719 C 84.140625 40.191406 81.441406 45.300781 80.75 45.5 C 79.96875 45.578125 76.960938 43.519531 77.011719 42.421875 Z M 77.011719 42.421875 "/>
<path style=" stroke:none;fill-rule:nonzero;fill:rgb(99.607843%,84.705882%,57.254902%);fill-opacity:1;" d="M 88.390625 39.050781 C 90.289062 38.25 92.949219 42.648438 92.648438 44.25 C 92.648438 44.949219 88.75 46.449219 88.148438 46.050781 C 87.550781 45.648438 86.488281 39.851562 88.390625 39.050781 Z M 88.390625 39.050781 "/>
<path style=" stroke:none;fill-rule:nonzero;fill:rgb(45.490196%,83.529412%,87.058824%);fill-opacity:1;" d="M 80.730469 54.859375 L 87.011719 85.410156 L 88.621094 85.410156 L 89.191406 58.160156 C 89.191406 57.691406 89.148438 54.730469 89.148438 54.351562 C 87.328125 54.878906 83.449219 55.300781 80.730469 54.859375 Z M 80.730469 54.859375 "/>
<path style=" stroke:none;fill-rule:nonzero;fill:rgb(0%,0%,0%);fill-opacity:1;" d="M 87.019531 87.738281 L 88.550781 87.738281 L 88.550781 89.398438 L 84.328125 89.398438 Z M 87.019531 87.738281 "/>
<path style=" stroke:none;fill-rule:nonzero;fill:rgb(0%,0%,0%);fill-opacity:1;" d="M 68.988281 77.941406 L 70.519531 77.941406 L 70.519531 79.601562 L 66.300781 79.601562 Z M 68.988281 77.941406 "/>
<path style=" stroke:none;fill-rule:nonzero;fill:rgb(99.215686%,51.372549%,41.176471%);fill-opacity:1;" d="M 59.800781 79.601562 L 78.011719 79.601562 L 78.011719 90.261719 L 59.800781 90.261719 Z M 59.800781 79.601562 "/>
<path style=" stroke:none;fill-rule:nonzero;fill:rgb(99.215686%,51.372549%,41.176471%);fill-opacity:1;" d="M 14.070312 90.839844 L 7.039062 90.761719 L 4.578125 81.730469 L 16.371094 81.730469 Z M 14.070312 90.839844 "/>
<path style=" stroke:none;fill-rule:nonzero;fill:rgb(99.607843%,80%,57.254902%);fill-opacity:1;" d="M 84.230469 36.699219 C 88.929688 36.699219 90.570312 40.609375 90.570312 41.878906 C 90.570312 43.148438 89.101562 50.898438 89.160156 54.351562 C 89.171875 54.921875 80.730469 55.429688 79.578125 54.601562 C 79.039062 54.210938 77.878906 36.699219 84.230469 36.699219 Z M 84.230469 36.699219 "/>
<path style=" stroke:none;fill-rule:nonzero;fill:rgb(87.058824%,55.686275%,40.784314%);fill-opacity:1;" d="M 92.648438 44.25 C 93.980469 46.289062 93.898438 50.988281 93.898438 51.699219 C 93.898438 52.410156 88.941406 58.789062 88.511719 58.789062 C 88.25 58.53125 87.53125 57.738281 87.53125 57.5 C 87.761719 57.078125 90.710938 50.628906 91.238281 50.171875 C 91 49.878906 88.890625 46.570312 88.800781 46.019531 C 90.648438 45.710938 92.441406 44.929688 92.648438 44.25 Z M 92.648438 44.25 "/>
<path style=" stroke:none;fill-rule:nonzero;fill:rgb(99.607843%,84.705882%,57.254902%);fill-opacity:1;" d="M 92.648438 44.25 C 92.949219 42.648438 90.519531 38.011719 88.390625 39.050781 C 86.539062 39.960938 87.550781 45.648438 88.148438 46.050781 C 88.871094 46.359375 92.371094 45.308594 92.648438 44.25 Z M 92.648438 44.25 "/>
<path style=" stroke:none;fill-rule:nonzero;fill:rgb(82.745098%,51.764706%,40%);fill-opacity:1;" d="M 83.03125 35.738281 C 82.929688 36.050781 82.878906 37.011719 82.988281 37.441406 C 83 37.460938 84.988281 37.609375 85.210938 37.261719 C 85.21875 36.96875 85.699219 34.390625 86.351562 33.589844 C 86.410156 33.5 86.28125 33.25 86.28125 33.25 L 83.96875 34.210938 L 83.03125 35.738281 "/>
<path style=" stroke:none;fill-rule:nonzero;fill:rgb(99.215686%,51.372549%,41.176471%);fill-opacity:1;" d="M 86.019531 33.46875 C 86.171875 33.671875 86.359375 33.761719 86.53125 33.761719 C 86.910156 33.761719 87.789062 33.410156 87.789062 32.160156 C 87.789062 31.261719 86.910156 30.800781 86.910156 30.371094 C 86.910156 29.960938 87.019531 29.949219 87.019531 29.609375 C 87.019531 29.441406 86.851562 28.878906 86.320312 28.878906 C 86.019531 28.878906 85.910156 29.128906 85.609375 29.128906 C 85.28125 29.128906 84.980469 28.488281 84.480469 28.488281 C 84.140625 28.488281 83.820312 28.808594 83.460938 28.808594 C 83.050781 28.808594 82.769531 28.199219 82.199219 28.199219 C 81.609375 28.199219 81.398438 28.730469 81.171875 28.730469 C 80.878906 28.730469 80.828125 28.648438 80.539062 28.648438 C 80.359375 28.648438 79.808594 28.96875 79.808594 29.550781 C 79.808594 29.960938 79.980469 30.628906 80.828125 30.628906 C 81.328125 30.628906 81.609375 31.421875 82.050781 31.421875 C 82.21875 31.421875 82.371094 31.28125 82.410156 31.351562 C 82.578125 31.648438 82.929688 32.46875 82.929688 32.46875 L 84.519531 33.359375 Z M 86.019531 33.46875 "/>
<path style=" stroke:none;fill-rule:nonzero;fill:rgb(87.058824%,55.686275%,40.784314%);fill-opacity:1;" d="M 85.671875 33.058594 C 85.671875 33.199219 85.621094 33.230469 85.410156 33.230469 C 85.308594 33.230469 85.171875 33.101562 85.171875 32.960938 C 85.171875 32.628906 85.410156 32.558594 85.410156 32.128906 C 85.410156 31.398438 83.5 31.019531 82.828125 30.640625 C 82.589844 30.878906 82.421875 31.191406 82.351562 31.539062 L 81.921875 33.75 C 81.730469 34.710938 82.359375 35.640625 83.308594 35.828125 C 84.261719 36.019531 85.199219 35.390625 85.390625 34.441406 L 85.460938 34.058594 C 85.5 34.070312 85.539062 34.078125 85.570312 34.078125 C 85.820312 34.078125 86.011719 33.851562 86.011719 33.570312 C 86.03125 33.308594 85.671875 32.851562 85.671875 33.058594 Z M 85.671875 33.058594 "/>
<path style=" stroke:none;fill-rule:nonzero;fill:rgb(43.529412%,78.823529%,80.784314%);fill-opacity:1;" d="M 11.480469 78.191406 C 9.449219 64.601562 4.480469 57.46875 3.851562 57.738281 C 2.960938 58.128906 2.699219 65.761719 4.289062 73.640625 C 4.328125 73.640625 4.359375 73.628906 4.398438 73.628906 C 4.859375 73.628906 5.230469 74 5.230469 74.460938 C 5.230469 74.601562 5.199219 74.730469 5.140625 74.839844 C 5.410156 74.980469 5.601562 75.261719 5.601562 75.578125 C 5.601562 75.980469 5.308594 76.320312 4.929688 76.398438 C 5.398438 78.21875 5.988281 80.019531 6.691406 81.691406 C 7.050781 81.691406 11.089844 81.691406 11.089844 81.691406 C 11.089844 81.691406 11.78125 80.171875 11.480469 78.191406 Z M 11.480469 78.191406 "/>
<path style=" stroke:none;fill-rule:nonzero;fill:rgb(45.490196%,83.529412%,87.058824%);fill-opacity:1;" d="M 23.230469 63.78125 C 22 63.78125 20.679688 67.320312 19.21875 67.320312 C 18.898438 67.320312 18.691406 66.96875 18.691406 66.640625 C 18.691406 66.320312 19.699219 62.800781 19.699219 61.089844 C 19.699219 60.941406 19.691406 60.78125 19.671875 60.621094 C 19.511719 60.71875 19.308594 60.78125 19.109375 60.78125 C 18.511719 60.78125 18.019531 60.289062 18.019531 59.691406 C 18.019531 59.160156 18.390625 58.730469 18.890625 58.621094 C 18.378906 57.96875 17.628906 57.511719 16.609375 57.511719 C 15.320312 57.511719 13.5 58.660156 13.5 60.441406 C 13.5 60.941406 13.648438 62.210938 13.648438 63.359375 C 13.648438 69.878906 8.539062 70.859375 8.539062 78.078125 C 8.539062 79.601562 9.378906 81.269531 9.628906 81.679688 C 9.628906 81.679688 13.910156 81.730469 14.320312 81.730469 C 14.730469 81.730469 18.058594 76.171875 18.441406 75.578125 C 19.890625 73.339844 24.710938 70.878906 24.710938 65.53125 C 24.710938 64.78125 24.441406 63.78125 23.230469 63.78125 Z M 23.230469 63.78125 "/>
</g>
</svg>
